<svg width="268.8" height="64.4" viewBox="0 0 384 92" fill="none" xmlns="http://www.w3.org/2000/svg">
  <g clip-path="url(#clip0_2_62)">
    <path d="M41.459 44.668C32.686 44.668 27.786 39.948 27.786 30.868V11.489H35.358V30.326C35.358 34.96 37.318 37.766 41.638 37.766C45.913 37.766 47.872 34.96 47.872 30.326V11.489H55.444V30.863C55.444 39.948 50.233 44.663 41.459 44.663" fill="black" />
    <path d="M128.965 44.134V11.489H149.629V18.436H136.537V24.271H148.472V30.862H136.537V37.231H149.629V44.131L128.965 44.134Z" fill="black" />
    <path d="M187.302 44.133L186.902 28.101L177.862 39.546H177.062L167.932 28.101L167.621 44.133H160.321L161.835 11.264L162.86 11.176L177.647 29.835L192.075 11.176L193.1 11.264L194.657 44.133H187.302Z" fill="black" />
    <path d="M215.975 30.152C215.023 30.1421 214.072 30.1871 213.125 30.287V37.852C214.176 37.9509 215.231 37.9957 216.287 37.986C220.118 37.986 221.943 36.515 221.943 34.066C221.943 31.572 219.983 30.146 215.974 30.146L215.975 30.152ZM216.554 17.765C215.404 17.7663 214.256 17.8714 213.124 18.079V24.891C214.056 24.9944 214.993 25.0391 215.93 25.025C219.581 25.025 221.409 23.689 221.409 21.33C221.409 19.369 219.76 17.765 216.554 17.765ZM215.53 44.443C212.269 44.4082 209.012 44.1852 205.777 43.775V11.888C208.803 11.4622 211.852 11.2244 214.907 11.176C224.393 11.176 229.201 15.407 229.201 19.951C229.201 23.38 227.286 25.696 223.591 27.21C228.043 28.546 230.137 31.129 230.137 34.871C230.137 39.948 225.328 44.446 215.53 44.446" fill="black" />
    <path d="M255.829 17.724C250.663 17.724 247.189 21.954 247.189 27.835C247.189 33.667 250.663 37.945 255.829 37.945C260.995 37.945 264.471 33.668 264.471 27.835C264.471 21.954 260.995 17.724 255.829 17.724ZM255.698 44.668C245.586 44.668 239.13 37.407 239.13 27.835C239.13 18.214 245.898 10.955 256.008 10.955C266.075 10.955 272.576 18.214 272.576 27.835C272.576 37.407 265.762 44.668 255.698 44.668Z" fill="black" />
    <path d="M296.352 44.668C287.577 44.668 282.677 39.948 282.677 30.868V11.489H290.249V30.326C290.249 34.96 292.21 37.766 296.53 37.766C300.805 37.766 302.764 34.96 302.764 30.326V11.489H310.336V30.863C310.336 39.948 305.124 44.663 296.351 44.663" fill="black" />
    <path d="M332.021 18.037C331.036 18.0189 330.051 18.0929 329.08 18.258V27.258C329.879 27.345 330.682 27.3897 331.485 27.392C335.092 27.392 337.408 25.655 337.408 22.36C337.408 19.644 335.269 18.041 332.021 18.041V18.037ZM338.746 44.141L333.182 33.489C332.753 33.5264 332.322 33.5414 331.892 33.534C330.779 33.534 330.155 33.489 329.085 33.445V44.133H321.515V11.801C324.708 11.4358 327.919 11.2568 331.132 11.265C341.288 11.265 345.298 16.12 345.298 22.088C345.276 24.0165 344.746 25.9052 343.761 27.5631C342.775 29.221 341.37 30.5894 339.686 31.53L347.346 44.13L338.746 44.141Z" fill="black" />
    <path d="M383.765 25.785V41.372C380.023 43.597 375.737 44.7394 371.384 44.672C361.808 44.672 354.237 37.812 354.237 27.836C354.237 17.816 361.897 10.958 371.785 10.958C375.613 10.9578 379.38 11.9207 382.739 13.758L379.577 19.858C377.326 18.6719 374.822 18.0459 372.277 18.033C365.777 18.033 362.301 22.084 362.301 27.833C362.301 34.067 366.487 37.943 371.831 37.943C373.485 38.0714 375.144 37.7642 376.642 37.052V32.242H370.095V25.785H383.765Z" fill="black" />
    <path d="M128.992 91.067V76.829H132.292V88.056H138.002V91.066L128.992 91.067Z" fill="black" />
    <path d="M142.23 91.067V76.829H151.241V79.86H145.53V82.404H150.73V85.281H145.53V88.06H151.239V91.07L142.23 91.067Z" fill="black" />
    <path d="M162.607 79.86V91.066H159.307V79.86H155.035V76.829H166.88V79.86H162.607Z" fill="black" />
    <path d="M170.805 81.356L170.552 80.967C171.086 80.5195 171.488 79.9359 171.717 79.278C171.535 79.2815 171.355 79.2489 171.186 79.1822C171.017 79.1155 170.863 79.016 170.733 78.8895C170.603 78.7629 170.499 78.6118 170.428 78.4449C170.356 78.278 170.319 78.0986 170.317 77.917C170.317 77.5703 170.453 77.2374 170.696 76.9904C170.94 76.7433 171.27 76.602 171.617 76.597C171.823 76.5946 172.028 76.6357 172.217 76.7177C172.407 76.7997 172.576 76.9207 172.716 77.0729C172.855 77.225 172.961 77.4048 173.026 77.6006C173.091 77.7964 173.114 78.0037 173.094 78.209C173.042 78.8946 172.8 79.5521 172.395 80.1078C171.99 80.6635 171.439 81.0954 170.802 81.355" fill="black" />
    <path d="M180.943 91.3C179.242 91.2483 177.586 90.7455 176.143 89.843L177.057 86.853C178.214 87.7045 179.602 88.1853 181.038 88.232C182.203 88.232 182.65 87.687 182.65 86.99C182.65 86.251 182.28 85.746 180.105 84.873C177.599 83.863 176.725 82.406 176.725 80.697C176.725 78.62 178.416 76.597 181.736 76.597C183.139 76.6017 184.514 76.9837 185.718 77.703L184.883 80.657C183.956 79.9962 182.87 79.594 181.736 79.492C180.536 79.492 180.047 80.054 180.047 80.637C180.047 81.569 180.765 81.881 182.547 82.637C185.207 83.763 186.003 85.046 186.003 86.871C186.003 89.143 184.353 91.3 180.934 91.3" fill="black" />
    <path d="M207.768 91.067L207.593 84.073L203.65 89.067H203.3L199.319 84.073L199.183 91.067H195.997L196.658 76.732L197.104 76.693L203.553 84.832L209.845 76.693L210.293 76.732L210.973 91.067H207.768Z" fill="black" />
    <path d="M220.976 82.539L219.559 85.96H222.375L220.976 82.539ZM224.492 91.068L223.423 88.483H218.508L217.441 91.068H214.08L220.78 76.715H221.228L227.928 91.068H224.492Z" fill="black" />
    <path d="M239.759 91.067L234.534 84.405V91.067H231.234V76.829H234.534V83.024L239.525 76.829H243.425L237.578 83.608L243.735 91.067H239.759Z" fill="black" />
    <path d="M247.627 91.067V76.829H256.639V79.86H250.929V82.404H256.129V85.281H250.929V88.06H256.639V91.07L247.627 91.067Z" fill="black" />
    <path d="M270.819 76.829H267.517V91.066H270.819V76.829Z" fill="black" />
    <path d="M282.473 79.86V91.066H279.173V79.86H274.901V76.829H286.748V79.86H282.473Z" fill="black" />
    <path d="M305.432 91.067V85.356H299.955V91.067H296.655V76.829H299.955V82.404H305.432V76.829H308.732V91.066L305.432 91.067Z" fill="black" />
    <path d="M318.931 82.539L317.514 85.96H320.33L318.931 82.539ZM322.447 91.068L321.378 88.483H316.463L315.395 91.068H312.034L318.734 76.715H319.182L325.882 91.068H322.447Z" fill="black" />
    <path d="M333.717 79.821C333.308 79.8204 332.899 79.8461 332.493 79.898V83.958C332.958 83.978 333.173 83.997 333.483 83.997C335.23 83.997 336.105 83.238 336.105 81.861C336.105 80.715 335.347 79.821 333.716 79.821H333.717ZM333.716 86.852C333.25 86.852 332.94 86.833 332.492 86.813V91.062H329.192V76.962C330.508 76.8141 331.83 76.7359 333.154 76.728C337.271 76.728 339.486 78.923 339.486 81.798C339.486 84.73 337.486 86.848 333.717 86.848" fill="black" />
    <path d="M348.204 79.821C347.795 79.8203 347.386 79.846 346.98 79.898V83.958C347.447 83.978 347.66 83.997 347.97 83.997C349.717 83.997 350.592 83.238 350.592 81.861C350.592 80.715 349.835 79.821 348.203 79.821H348.204ZM348.203 86.852C347.737 86.852 347.427 86.833 346.979 86.813V91.062H343.679V76.962C344.995 76.8141 346.317 76.7359 347.641 76.728C351.758 76.728 353.973 78.923 353.973 81.798C353.973 84.73 351.973 86.848 348.204 86.848" fill="black" />
    <path d="M358.17 91.067V76.829H367.181V79.86H361.473V82.404H366.673V85.281H361.473V88.06H367.181V91.07L358.17 91.067Z" fill="black" />
    <path d="M383.67 91.339L375.085 83.627V91.066H371.785V76.636L372.232 76.559L380.701 84.213V76.827H384.001V91.278L383.67 91.339Z" fill="black" />
    <path d="M65.071 0.661011H75.9311L86.791 11.521V22.381H75.9311L65.071 11.521V0.661011Z" fill="#E30613" />
    <path d="M119.372 0.661011H108.516L97.656 11.521V22.381H108.516L119.376 11.521L119.372 0.661011Z" fill="#009FE3" />
    <path d="M97.651 33.241H108.515L119.375 44.101V54.965H108.515L97.655 44.105L97.651 33.241Z" fill="#E30613" />
    <path d="M86.791 33.241H75.9311L65.071 44.101V54.965H75.9311L86.791 44.105V33.241Z" fill="#009FE3" />
    <path d="M0 44.134V11.489H7.57101V37.231H20.664V44.131L0 44.134Z" fill="black" />
  </g>
  <defs>
    <clipPath id="clip0_2_62">
      <rect width="384" height="90.678" fill="white" transform="translate(0 0.661011)" />
    </clipPath>
  </defs>
</svg>